<?xml version="1.0" encoding="UTF-8" standalone="no"?>
<!DOCTYPE svg PUBLIC "-//W3C//DTD SVG 1.1//EN" "http://www.w3.org/Graphics/SVG/1.1/DTD/svg11.dtd">
<svg width="100%" height="100%" viewBox="0 0 3544 2953" version="1.1" xmlns="http://www.w3.org/2000/svg" xmlns:xlink="http://www.w3.org/1999/xlink" xml:space="preserve" xmlns:serif="http://www.serif.com/" style="fill-rule:evenodd;clip-rule:evenodd;stroke-linejoin:round;stroke-miterlimit:2;">
    <g transform="matrix(1,0,0,1,-3751,0)">
        <g id="V2" transform="matrix(1,0,0,1,-0.64042,0)">
            <rect x="3751.64" y="0" width="3543.31" height="2952.76" style="fill:white;"/>
            <g transform="matrix(1.00727,0,0,0.146454,3466.27,437.899)">
                <rect x="844.782" y="847.594" width="1931.82" height="733.883" style="fill:rgb(235,235,235);"/>
            </g>
            <g transform="matrix(0.623623,0,0,0.0257502,3851.64,1388.41)">
                <rect x="844.782" y="847.594" width="1931.82" height="733.883" style="fill:rgb(217,217,217);"/>
            </g>
            <g transform="matrix(1,0,0,1,3792.36,930.247)">
                <g transform="matrix(50,0,0,50,1153.39,260.118)">
                </g>
                <text x="395.545px" y="260.118px" style="font-family:'Futura-Bold', 'Futura', sans-serif;font-weight:700;font-size:50px;">SHORT SIDE CR<tspan x="797.845px 844.095px " y="260.118px 260.118px ">OS</tspan>S-SECTION</text>
            </g>
            <g transform="matrix(1,0,0,1,3809.68,153.659)">
                <g transform="matrix(50,0,0,50,1596.94,260.118)">
                </g>
                <text x="395.545px" y="260.118px" style="font-family:'Futura-Bold', 'Futura', sans-serif;font-weight:700;font-size:50px;">L<tspan x="421.395px 467.645px 513.895px 557.895px " y="260.118px 260.118px 260.118px 260.118px ">ONG </tspan>SIDE CR<tspan x="777.795px 824.045px " y="260.118px 260.118px ">OS</tspan>S-SECTION (FR<tspan x="1231.64px 1277.89px " y="260.118px 260.118px ">OM</tspan> B<tspan x="1380.94px 1426.8px 1453.5px 1479.85px 1526.1px " y="260.118px 260.118px 260.118px 260.118px 260.118px ">OTTOM</tspan>)</text>
            </g>
            <g transform="matrix(0.611395,0,0,0.120704,3861.97,1219.35)">
                <rect x="844.782" y="847.594" width="1931.82" height="733.883" style="fill:rgb(235,235,235);"/>
            </g>
            <g transform="matrix(1.606,0,0,1.07929,3357.69,-52.1907)">
                <rect x="615.986" y="668.681" width="40.449" height="43.773" style="fill:rgb(191,192,194);"/>
            </g>
            <g transform="matrix(0.867357,0,0,1.05823,3890.12,-247.548)">
                <rect x="566.929" y="1482.86" width="51.065" height="11.161" style="fill:rgb(191,192,194);"/>
            </g>
            <g transform="matrix(0.751709,0,0,1.05823,3891.03,-1007.17)">
                <rect x="566.929" y="1482.86" width="51.065" height="11.161" style="fill:rgb(191,192,194);"/>
            </g>
            <g transform="matrix(1.50342,0,0,1.05823,5335.92,-1007.17)">
                <rect x="566.929" y="1482.86" width="51.065" height="11.161" style="fill:rgb(191,192,194);"/>
            </g>
            <g transform="matrix(1.606,0,0,1.07929,3413.21,707.43)">
                <rect x="615.986" y="668.681" width="40.449" height="43.773" style="fill:rgb(191,192,194);"/>
            </g>
            <g transform="matrix(1.606,0,0,1.07929,4505.73,707.43)">
                <rect x="615.986" y="668.681" width="40.449" height="43.773" style="fill:rgb(191,192,194);"/>
            </g>
            <g transform="matrix(1.606,0,0,1.07929,5184.85,-52.1907)">
                <rect x="615.986" y="668.681" width="40.449" height="43.773" style="fill:rgb(191,192,194);"/>
            </g>
            <g transform="matrix(0.662999,0,0,0.662999,3634.62,923.261)">
                <g transform="matrix(1.744,0,0,1.76772,147.375,-1732.91)">
                    <rect x="655.906" y="1939.18" width="1115.75" height="681.512" style="fill:rgb(45,45,45);"/>
                </g>
                <g transform="matrix(1.64079,0,0,1.55976,253.458,-1285.33)">
                    <rect x="655.906" y="1939.18" width="1115.75" height="681.512" style="fill:rgb(104,104,104);"/>
                </g>
            </g>
            <g transform="matrix(1,0,0,1,5211.77,475.505)">
                <text x="694.133px" y="1932.38px" style="font-family:'Futura-Medium', 'Futura', sans-serif;font-weight:500;font-size:50px;">BEZEL WID<tspan x="951.872px 975.993px " y="1932.38px 1932.38px ">TH</tspan>S</text>
                <text x="694.133px" y="2035.36px" style="font-family:'Futura-Medium', 'Futura', sans-serif;font-weight:500;font-size:50px;">T<tspan x="717.058px 761.735px " y="2035.36px 2035.36px ">OP</tspan>:  <tspan x="844.133px 994.133px " y="2035.36px 2035.36px "> 3</tspan>.75MM</text>
                <text x="694.133px" y="2086.85px" style="font-family:'Futura-Medium', 'Futura', sans-serif;font-weight:500;font-size:50px;">B<tspan x="723.405px 766.74px 790.861px 813.786px 858.464px " y="2086.85px 2086.85px 2086.85px 2086.85px 2086.85px ">OTTOM</tspan>: <tspan x="994.133px " y="2086.85px ">8</tspan>.50MM</text>
                <text x="694.133px" y="2138.34px" style="font-family:'Futura-Medium', 'Futura', sans-serif;font-weight:500;font-size:50px;">LEFT<tspan x="793.547px 808.977px 844.133px 994.133px " y="2138.34px 2138.34px 2138.34px 2138.34px ">:  3</tspan>.25MM</text>
                <g transform="matrix(50,0,0,50,1198.28,2189.83)">
                </g>
                <text x="694.133px" y="2189.83px" style="font-family:'Futura-Medium', 'Futura', sans-serif;font-weight:500;font-size:50px;">RIGHT<tspan x="841.325px 856.755px 872.185px 994.133px " y="2189.83px 2189.83px 2189.83px 2189.83px ">:  6</tspan>.50MM</text>
            </g>
            <g transform="matrix(1,0,0,2,3811.54,-1655.23)">
                <rect x="1647.12" y="1488.44" width="100.912" height="5.581" style="fill:rgb(191,192,194);"/>
            </g>
            <g transform="matrix(1,0,0,1,3776.41,0)">
                <path d="M579.921,562.032C579.921,562.032 578.013,551.959 574.785,549.238C568.393,543.85 550.832,538.594 530.727,538.594L464.023,538.594L464.023,690.106C464.023,762.17 509.568,764.001 568.292,764.001C627.015,764.001 721.73,761.309 777.405,817.151C833.079,872.993 889.259,912.885 991.225,912.4L991.225,896.805L1015.78,896.805L1015.78,874.826C992.133,874.826 935.632,876.095 910.828,865.282C857.123,841.871 847.383,825.767 800.537,784.258C753.69,742.749 672.786,723.838 602.064,723.838C531.342,723.838 531.184,711.084 531.184,683.813C531.184,656.542 532.631,562.807 532.631,562.807L579.921,562.032Z"/>
                <path d="M579.921,562.032L532.631,562.807C532.631,562.807 531.184,656.542 531.184,683.813C531.184,711.084 531.342,723.838 602.064,723.838C672.786,723.838 753.69,742.749 800.537,784.258C847.383,825.767 857.123,841.871 910.828,865.282C935.632,876.095 992.133,874.826 1015.78,874.826L1015.78,896.805L991.225,896.805L991.225,912.4C889.259,912.885 833.079,872.993 777.405,817.151C721.73,761.309 627.015,764.001 568.292,764.001C509.568,764.001 464.023,762.17 464.023,690.106L464.023,538.594L530.727,538.594C550.832,538.594 568.393,543.85 574.785,549.238C578.013,551.959 579.921,562.032 579.921,562.032ZM979.414,886.353C953.258,885.661 922.816,883.392 906.108,876.109C850.957,852.068 840.812,835.725 792.704,793.098C747.745,753.261 669.937,735.649 602.064,735.649C574.819,735.649 557.381,733.658 546.193,730.032C536.152,726.778 530.095,722.061 526.156,716.55C520.358,708.437 519.373,697.694 519.373,683.813C519.373,656.5 520.821,562.625 520.821,562.625L520.998,551.185L541.057,550.856C537.751,550.563 534.283,550.405 530.727,550.405L475.834,550.405L475.834,690.106C475.834,714.256 481.03,729.296 491.505,738.285C499.311,744.984 509.678,748.17 521.641,749.982C535.487,752.079 551.319,752.19 568.292,752.19C598.192,752.19 637.252,751.561 675.926,757.984C716.316,764.691 756.164,779.118 785.769,808.811C837.099,860.296 888.78,897.888 979.414,900.454L979.414,886.353Z"/>
            </g>
            <g transform="matrix(-1,0,0,1,6767.98,0)">
                <path d="M579.721,562.032C579.721,562.032 578.005,551.369 574.776,548.648C568.384,543.26 550.824,538.004 530.718,538.004C510.41,538.004 464.023,538.594 464.023,538.594L464.023,690.106C464.023,762.17 509.568,764.001 568.292,764.001C627.015,764.001 743.17,780.446 798.844,836.288C854.519,892.13 875.028,912.889 976.994,912.405L976.994,896.809L1001.55,896.809L1001.55,874.831C977.182,874.831 915.163,876.148 889.635,858.489C854.567,834.231 849.491,828.074 802.645,786.565C755.799,745.056 637.358,723.838 566.636,723.838C495.914,723.838 495.756,711.084 495.756,683.813C495.756,656.542 497.203,562.807 497.203,562.807L579.721,562.032Z"/>
                <path d="M579.721,562.032C579.721,562.032 578.005,551.369 574.776,548.648C568.384,543.26 550.824,538.004 530.718,538.004C510.41,538.004 464.023,538.594 464.023,538.594L464.023,690.106C464.023,762.17 509.568,764.001 568.292,764.001C627.015,764.001 743.17,780.446 798.844,836.288C854.519,892.13 875.028,912.889 976.994,912.405L976.994,896.809L1001.55,896.809L1001.55,874.831C977.182,874.831 915.163,876.148 889.635,858.489C854.567,834.231 849.491,828.074 802.645,786.565C755.799,745.056 637.358,723.838 566.636,723.838C495.914,723.838 495.756,711.084 495.756,683.813C495.756,656.542 497.203,562.807 497.203,562.807L579.721,562.032ZM965.183,886.251L965.183,900.552C923.653,900.028 897.362,895.398 875.737,884.853C851.948,873.252 833.876,854.697 807.208,827.949C749.455,770.022 629.207,752.19 568.292,752.19C551.319,752.19 535.487,752.079 521.641,749.982C509.678,748.17 499.311,744.984 491.505,738.285C481.03,729.296 475.834,714.256 475.834,690.106L475.834,550.264C490.915,550.09 516.883,549.815 530.718,549.815C535.313,549.815 539.761,550.08 543.903,550.557L485.571,551.105L485.393,562.625C485.393,562.625 483.945,656.5 483.945,683.813C483.945,697.694 484.93,708.437 490.728,716.55C494.667,722.061 500.724,726.778 510.765,730.032C521.953,733.658 539.39,735.649 566.636,735.649C608.142,735.649 666.449,743.132 716.353,757.88C748.474,767.372 777.115,779.724 794.812,795.405C842.246,837.434 847.408,843.64 882.915,868.203C894.367,876.124 912.25,881.009 931.476,883.577C942.677,885.073 954.334,885.851 965.183,886.251Z"/>
            </g>
            <g transform="matrix(1,0,0,1,3811.54,0)">
                <g transform="matrix(1.85731,0,0,4.19125,74.3615,-2136.58)">
                    <rect x="505.664" y="669.513" width="413.348" height="45.088" style="fill:rgb(250,138,138);fill-opacity:0.51;"/>
                </g>
                <g transform="matrix(1,0,0,1,373.227,74.8447)">
                    <g transform="matrix(29.15,0,0,29.15,1367.55,741.694)">
                    </g>
                    <text x="1243.86px" y="741.694px" style="font-family:'Futura-Bold', 'Futura', sans-serif;font-weight:700;font-size:29.15px;">RPI 3A+</text>
                </g>
            </g>
            <g transform="matrix(0.869231,0,0,1,3729.18,759.621)">
                <g transform="matrix(1.85731,0,0,4.19125,74.3615,-2136.58)">
                    <rect x="505.664" y="669.513" width="413.348" height="45.088" style="fill:rgb(250,138,138);fill-opacity:0.51;"/>
                </g>
                <g transform="matrix(1.11841,0,0,1,211.546,74.8447)">
                    <g transform="matrix(29.15,0,0,29.15,1367.55,741.694)">
                    </g>
                    <text x="1243.86px" y="741.694px" style="font-family:'Futura-Bold', 'Futura', sans-serif;font-weight:700;font-size:29.15px;">RPI 3A+</text>
                </g>
            </g>
            <g transform="matrix(1,0,0,1,0.64042,0)">
                <path d="M4791.55,874.981L4791.55,897.286L4766.76,912.405L5111.76,912.405L5790.05,912.413L5790.38,897.936L5765.78,896.629L5765.78,875.662L4791.55,874.981Z"/>
            </g>
        </g>
    </g>
</svg>
