G04 #@! TF.GenerationSoftware,KiCad,Pcbnew,9.0.3*
G04 #@! TF.CreationDate,2025-08-01T10:30:01-07:00*
G04 #@! TF.ProjectId,Joycon Cable Extender,4a6f7963-6f6e-4204-9361-626c65204578,rev?*
G04 #@! TF.SameCoordinates,Original*
G04 #@! TF.FileFunction,Copper,L1,Top*
G04 #@! TF.FilePolarity,Positive*
%FSLAX46Y46*%
G04 Gerber Fmt 4.6, Leading zero omitted, Abs format (unit mm)*
G04 Created by KiCad (PCBNEW 9.0.3) date 2025-08-01 10:30:01*
%MOMM*%
%LPD*%
G01*
G04 APERTURE LIST*
G04 #@! TA.AperFunction,SMDPad,CuDef*
%ADD10R,0.720000X0.250000*%
G04 #@! TD*
G04 #@! TA.AperFunction,SMDPad,CuDef*
%ADD11R,0.520000X0.250000*%
G04 #@! TD*
G04 #@! TA.AperFunction,SMDPad,CuDef*
%ADD12R,0.850000X0.300000*%
G04 #@! TD*
G04 #@! TA.AperFunction,Conductor*
%ADD13C,0.200000*%
G04 #@! TD*
G04 APERTURE END LIST*
D10*
X188066000Y-110290095D03*
D11*
X185636000Y-109995089D03*
D10*
X188066000Y-109690095D03*
D11*
X185636000Y-109395089D03*
D10*
X188066000Y-109090095D03*
D11*
X185636000Y-108795100D03*
D10*
X188066000Y-108490095D03*
D11*
X185636000Y-108195089D03*
D10*
X188066000Y-107890095D03*
D11*
X185636000Y-107595088D03*
D10*
X188066000Y-107290095D03*
D12*
X187999960Y-111000016D03*
X187999960Y-106580024D03*
D10*
X171070000Y-107305005D03*
D11*
X173500000Y-107600011D03*
D10*
X171070000Y-107905005D03*
D11*
X173500000Y-108200011D03*
D10*
X171070000Y-108505005D03*
D11*
X173500000Y-108800000D03*
D10*
X171070000Y-109105005D03*
D11*
X173500000Y-109400011D03*
D10*
X171070000Y-109705005D03*
D11*
X173500000Y-110000012D03*
D10*
X171070000Y-110305005D03*
D12*
X171136040Y-106595084D03*
X171136040Y-111015076D03*
D13*
X186574600Y-110894700D02*
X187027700Y-110441600D01*
X171731700Y-110305000D02*
X172321400Y-110894700D01*
X187027700Y-110441600D02*
X187042600Y-110426700D01*
X187027700Y-110441600D02*
X187042600Y-110426700D01*
X172321400Y-110894700D02*
X186574600Y-110894700D01*
X171070000Y-110305000D02*
X171731700Y-110305000D01*
X187267700Y-110426700D02*
X187404300Y-110290100D01*
X187042600Y-110426700D02*
X187267700Y-110426700D01*
X188066000Y-110290100D02*
X187404300Y-110290100D01*
X174066600Y-109995100D02*
X174061700Y-110000000D01*
X185636000Y-109995100D02*
X174066600Y-109995100D01*
X173500000Y-110000000D02*
X174061700Y-110000000D01*
X188066000Y-107290100D02*
X187404300Y-107290100D01*
X187404300Y-107290100D02*
X186396900Y-106282700D01*
X186396900Y-106282700D02*
X172754000Y-106282700D01*
X172754000Y-106282700D02*
X171731700Y-107305000D01*
X171070000Y-107305000D02*
X171731700Y-107305000D01*
X173500000Y-108800000D02*
X174061700Y-108800000D01*
X185636000Y-108795100D02*
X174066600Y-108795100D01*
X174066600Y-108795100D02*
X174061700Y-108800000D01*
X173165000Y-107118300D02*
X185991800Y-107118300D01*
X185991800Y-107118300D02*
X187404300Y-108530800D01*
X171070000Y-109105000D02*
X171731700Y-109105000D01*
X188066000Y-109090100D02*
X187404300Y-109090100D01*
X187404300Y-108530800D02*
X187404300Y-109090100D01*
X171731700Y-108551600D02*
X173165000Y-107118300D01*
X171731700Y-109105000D02*
X171731700Y-108551600D01*
X172377100Y-105857400D02*
X172318200Y-105916300D01*
X188066000Y-108490100D02*
X188727700Y-108490100D01*
X188727700Y-108490100D02*
X188727700Y-106269300D01*
X170613200Y-106082600D02*
X170408300Y-106287500D01*
X172151900Y-106082600D02*
X170613200Y-106082600D01*
X170408300Y-106287500D02*
X170408300Y-108505000D01*
X172318200Y-105916300D02*
X172151900Y-106082600D01*
X188315800Y-105857400D02*
X172377100Y-105857400D01*
X172318200Y-105916300D02*
X172151900Y-106082600D01*
X188727700Y-106269300D02*
X188315800Y-105857400D01*
X171070000Y-108505000D02*
X170408300Y-108505000D01*
X171763700Y-109705000D02*
X172536000Y-110477300D01*
X186339900Y-110477300D02*
X187127100Y-109690100D01*
X187127100Y-109690100D02*
X188066000Y-109690100D01*
X172536000Y-110477300D02*
X186339900Y-110477300D01*
X171070000Y-109705000D02*
X171763700Y-109705000D01*
X173500000Y-107600000D02*
X185069400Y-107600000D01*
X185069400Y-107600000D02*
X185074300Y-107595100D01*
X185636000Y-107595100D02*
X185074300Y-107595100D01*
X171731700Y-107905000D02*
X172920100Y-106716600D01*
X171070000Y-107905000D02*
X171731700Y-107905000D01*
X187364800Y-107890100D02*
X188066000Y-107890100D01*
X186191300Y-106716600D02*
X187364800Y-107890100D01*
X172920100Y-106716600D02*
X186191300Y-106716600D01*
X185636000Y-109395100D02*
X174066600Y-109395100D01*
X173500000Y-109400000D02*
X174061700Y-109400000D01*
X174066600Y-109395100D02*
X174061700Y-109400000D01*
X185069400Y-108200000D02*
X185074300Y-108195100D01*
X185636000Y-108195100D02*
X185074300Y-108195100D01*
X173500000Y-108200000D02*
X185069400Y-108200000D01*
M02*
