G04 #@! TF.GenerationSoftware,KiCad,Pcbnew,9.0.3*
G04 #@! TF.CreationDate,2025-08-01T10:30:01-07:00*
G04 #@! TF.ProjectId,Joycon Cable Extender,4a6f7963-6f6e-4204-9361-626c65204578,rev?*
G04 #@! TF.SameCoordinates,Original*
G04 #@! TF.FileFunction,Legend,Top*
G04 #@! TF.FilePolarity,Positive*
%FSLAX46Y46*%
G04 Gerber Fmt 4.6, Leading zero omitted, Abs format (unit mm)*
G04 Created by KiCad (PCBNEW 9.0.3) date 2025-08-01 10:30:01*
%MOMM*%
%LPD*%
G01*
G04 APERTURE LIST*
%ADD10C,0.125000*%
%ADD11C,0.160000*%
%ADD12C,0.152400*%
%ADD13R,0.720000X0.250000*%
%ADD14R,0.520000X0.250000*%
%ADD15R,0.850000X0.300000*%
G04 APERTURE END LIST*
D10*
X173691759Y-113395595D02*
X173234616Y-113395595D01*
X173463188Y-113395595D02*
X173463188Y-112595595D01*
X173463188Y-112595595D02*
X173386997Y-112709880D01*
X173386997Y-112709880D02*
X173310807Y-112786071D01*
X173310807Y-112786071D02*
X173234616Y-112824166D01*
X174186998Y-112595595D02*
X174263188Y-112595595D01*
X174263188Y-112595595D02*
X174339379Y-112633690D01*
X174339379Y-112633690D02*
X174377474Y-112671785D01*
X174377474Y-112671785D02*
X174415569Y-112747976D01*
X174415569Y-112747976D02*
X174453664Y-112900357D01*
X174453664Y-112900357D02*
X174453664Y-113090833D01*
X174453664Y-113090833D02*
X174415569Y-113243214D01*
X174415569Y-113243214D02*
X174377474Y-113319404D01*
X174377474Y-113319404D02*
X174339379Y-113357500D01*
X174339379Y-113357500D02*
X174263188Y-113395595D01*
X174263188Y-113395595D02*
X174186998Y-113395595D01*
X174186998Y-113395595D02*
X174110807Y-113357500D01*
X174110807Y-113357500D02*
X174072712Y-113319404D01*
X174072712Y-113319404D02*
X174034617Y-113243214D01*
X174034617Y-113243214D02*
X173996521Y-113090833D01*
X173996521Y-113090833D02*
X173996521Y-112900357D01*
X173996521Y-112900357D02*
X174034617Y-112747976D01*
X174034617Y-112747976D02*
X174072712Y-112671785D01*
X174072712Y-112671785D02*
X174110807Y-112633690D01*
X174110807Y-112633690D02*
X174186998Y-112595595D01*
D11*
X173823807Y-102105820D02*
X173366664Y-102105820D01*
X173595236Y-102105820D02*
X173595236Y-101305820D01*
X173595236Y-101305820D02*
X173519045Y-101420105D01*
X173519045Y-101420105D02*
X173442855Y-101496296D01*
X173442855Y-101496296D02*
X173366664Y-101534391D01*
X174585712Y-102105820D02*
X174128569Y-102105820D01*
X174357141Y-102105820D02*
X174357141Y-101305820D01*
X174357141Y-101305820D02*
X174280950Y-101420105D01*
X174280950Y-101420105D02*
X174204760Y-101496296D01*
X174204760Y-101496296D02*
X174128569Y-101534391D01*
X174928570Y-101801058D02*
X175538094Y-101801058D01*
X175919046Y-101572486D02*
X175919046Y-102372486D01*
X175919046Y-101610582D02*
X175995236Y-101572486D01*
X175995236Y-101572486D02*
X176147617Y-101572486D01*
X176147617Y-101572486D02*
X176223808Y-101610582D01*
X176223808Y-101610582D02*
X176261903Y-101648677D01*
X176261903Y-101648677D02*
X176299998Y-101724867D01*
X176299998Y-101724867D02*
X176299998Y-101953439D01*
X176299998Y-101953439D02*
X176261903Y-102029629D01*
X176261903Y-102029629D02*
X176223808Y-102067725D01*
X176223808Y-102067725D02*
X176147617Y-102105820D01*
X176147617Y-102105820D02*
X175995236Y-102105820D01*
X175995236Y-102105820D02*
X175919046Y-102067725D01*
X176642856Y-102105820D02*
X176642856Y-101572486D01*
X176642856Y-101305820D02*
X176604760Y-101343915D01*
X176604760Y-101343915D02*
X176642856Y-101382010D01*
X176642856Y-101382010D02*
X176680951Y-101343915D01*
X176680951Y-101343915D02*
X176642856Y-101305820D01*
X176642856Y-101305820D02*
X176642856Y-101382010D01*
X177023808Y-101572486D02*
X177023808Y-102105820D01*
X177023808Y-101648677D02*
X177061903Y-101610582D01*
X177061903Y-101610582D02*
X177138093Y-101572486D01*
X177138093Y-101572486D02*
X177252379Y-101572486D01*
X177252379Y-101572486D02*
X177328570Y-101610582D01*
X177328570Y-101610582D02*
X177366665Y-101686772D01*
X177366665Y-101686772D02*
X177366665Y-102105820D01*
X178585713Y-101305820D02*
X178585713Y-101877248D01*
X178585713Y-101877248D02*
X178547618Y-101991534D01*
X178547618Y-101991534D02*
X178471427Y-102067725D01*
X178471427Y-102067725D02*
X178357142Y-102105820D01*
X178357142Y-102105820D02*
X178280951Y-102105820D01*
X179080951Y-102105820D02*
X179004761Y-102067725D01*
X179004761Y-102067725D02*
X178966666Y-102029629D01*
X178966666Y-102029629D02*
X178928570Y-101953439D01*
X178928570Y-101953439D02*
X178928570Y-101724867D01*
X178928570Y-101724867D02*
X178966666Y-101648677D01*
X178966666Y-101648677D02*
X179004761Y-101610582D01*
X179004761Y-101610582D02*
X179080951Y-101572486D01*
X179080951Y-101572486D02*
X179195237Y-101572486D01*
X179195237Y-101572486D02*
X179271428Y-101610582D01*
X179271428Y-101610582D02*
X179309523Y-101648677D01*
X179309523Y-101648677D02*
X179347618Y-101724867D01*
X179347618Y-101724867D02*
X179347618Y-101953439D01*
X179347618Y-101953439D02*
X179309523Y-102029629D01*
X179309523Y-102029629D02*
X179271428Y-102067725D01*
X179271428Y-102067725D02*
X179195237Y-102105820D01*
X179195237Y-102105820D02*
X179080951Y-102105820D01*
X179614285Y-101572486D02*
X179804761Y-102105820D01*
X179995238Y-101572486D02*
X179804761Y-102105820D01*
X179804761Y-102105820D02*
X179728571Y-102296296D01*
X179728571Y-102296296D02*
X179690476Y-102334391D01*
X179690476Y-102334391D02*
X179614285Y-102372486D01*
X180642857Y-102067725D02*
X180566666Y-102105820D01*
X180566666Y-102105820D02*
X180414285Y-102105820D01*
X180414285Y-102105820D02*
X180338095Y-102067725D01*
X180338095Y-102067725D02*
X180300000Y-102029629D01*
X180300000Y-102029629D02*
X180261904Y-101953439D01*
X180261904Y-101953439D02*
X180261904Y-101724867D01*
X180261904Y-101724867D02*
X180300000Y-101648677D01*
X180300000Y-101648677D02*
X180338095Y-101610582D01*
X180338095Y-101610582D02*
X180414285Y-101572486D01*
X180414285Y-101572486D02*
X180566666Y-101572486D01*
X180566666Y-101572486D02*
X180642857Y-101610582D01*
X181099999Y-102105820D02*
X181023809Y-102067725D01*
X181023809Y-102067725D02*
X180985714Y-102029629D01*
X180985714Y-102029629D02*
X180947618Y-101953439D01*
X180947618Y-101953439D02*
X180947618Y-101724867D01*
X180947618Y-101724867D02*
X180985714Y-101648677D01*
X180985714Y-101648677D02*
X181023809Y-101610582D01*
X181023809Y-101610582D02*
X181099999Y-101572486D01*
X181099999Y-101572486D02*
X181214285Y-101572486D01*
X181214285Y-101572486D02*
X181290476Y-101610582D01*
X181290476Y-101610582D02*
X181328571Y-101648677D01*
X181328571Y-101648677D02*
X181366666Y-101724867D01*
X181366666Y-101724867D02*
X181366666Y-101953439D01*
X181366666Y-101953439D02*
X181328571Y-102029629D01*
X181328571Y-102029629D02*
X181290476Y-102067725D01*
X181290476Y-102067725D02*
X181214285Y-102105820D01*
X181214285Y-102105820D02*
X181099999Y-102105820D01*
X181709524Y-101572486D02*
X181709524Y-102105820D01*
X181709524Y-101648677D02*
X181747619Y-101610582D01*
X181747619Y-101610582D02*
X181823809Y-101572486D01*
X181823809Y-101572486D02*
X181938095Y-101572486D01*
X181938095Y-101572486D02*
X182014286Y-101610582D01*
X182014286Y-101610582D02*
X182052381Y-101686772D01*
X182052381Y-101686772D02*
X182052381Y-102105820D01*
X183500001Y-102105820D02*
X183233334Y-101724867D01*
X183042858Y-102105820D02*
X183042858Y-101305820D01*
X183042858Y-101305820D02*
X183347620Y-101305820D01*
X183347620Y-101305820D02*
X183423810Y-101343915D01*
X183423810Y-101343915D02*
X183461905Y-101382010D01*
X183461905Y-101382010D02*
X183500001Y-101458201D01*
X183500001Y-101458201D02*
X183500001Y-101572486D01*
X183500001Y-101572486D02*
X183461905Y-101648677D01*
X183461905Y-101648677D02*
X183423810Y-101686772D01*
X183423810Y-101686772D02*
X183347620Y-101724867D01*
X183347620Y-101724867D02*
X183042858Y-101724867D01*
X184185715Y-102105820D02*
X184185715Y-101686772D01*
X184185715Y-101686772D02*
X184147620Y-101610582D01*
X184147620Y-101610582D02*
X184071429Y-101572486D01*
X184071429Y-101572486D02*
X183919048Y-101572486D01*
X183919048Y-101572486D02*
X183842858Y-101610582D01*
X184185715Y-102067725D02*
X184109524Y-102105820D01*
X184109524Y-102105820D02*
X183919048Y-102105820D01*
X183919048Y-102105820D02*
X183842858Y-102067725D01*
X183842858Y-102067725D02*
X183804762Y-101991534D01*
X183804762Y-101991534D02*
X183804762Y-101915344D01*
X183804762Y-101915344D02*
X183842858Y-101839153D01*
X183842858Y-101839153D02*
X183919048Y-101801058D01*
X183919048Y-101801058D02*
X184109524Y-101801058D01*
X184109524Y-101801058D02*
X184185715Y-101762963D01*
X184566668Y-102105820D02*
X184566668Y-101572486D01*
X184566668Y-101305820D02*
X184528572Y-101343915D01*
X184528572Y-101343915D02*
X184566668Y-101382010D01*
X184566668Y-101382010D02*
X184604763Y-101343915D01*
X184604763Y-101343915D02*
X184566668Y-101305820D01*
X184566668Y-101305820D02*
X184566668Y-101382010D01*
X185061905Y-102105820D02*
X184985715Y-102067725D01*
X184985715Y-102067725D02*
X184947620Y-101991534D01*
X184947620Y-101991534D02*
X184947620Y-101305820D01*
X175595237Y-103317584D02*
X175557141Y-103355680D01*
X175557141Y-103355680D02*
X175442856Y-103393775D01*
X175442856Y-103393775D02*
X175366665Y-103393775D01*
X175366665Y-103393775D02*
X175252379Y-103355680D01*
X175252379Y-103355680D02*
X175176189Y-103279489D01*
X175176189Y-103279489D02*
X175138094Y-103203299D01*
X175138094Y-103203299D02*
X175099998Y-103050918D01*
X175099998Y-103050918D02*
X175099998Y-102936632D01*
X175099998Y-102936632D02*
X175138094Y-102784251D01*
X175138094Y-102784251D02*
X175176189Y-102708060D01*
X175176189Y-102708060D02*
X175252379Y-102631870D01*
X175252379Y-102631870D02*
X175366665Y-102593775D01*
X175366665Y-102593775D02*
X175442856Y-102593775D01*
X175442856Y-102593775D02*
X175557141Y-102631870D01*
X175557141Y-102631870D02*
X175595237Y-102669965D01*
X176280951Y-103393775D02*
X176280951Y-102974727D01*
X176280951Y-102974727D02*
X176242856Y-102898537D01*
X176242856Y-102898537D02*
X176166665Y-102860441D01*
X176166665Y-102860441D02*
X176014284Y-102860441D01*
X176014284Y-102860441D02*
X175938094Y-102898537D01*
X176280951Y-103355680D02*
X176204760Y-103393775D01*
X176204760Y-103393775D02*
X176014284Y-103393775D01*
X176014284Y-103393775D02*
X175938094Y-103355680D01*
X175938094Y-103355680D02*
X175899998Y-103279489D01*
X175899998Y-103279489D02*
X175899998Y-103203299D01*
X175899998Y-103203299D02*
X175938094Y-103127108D01*
X175938094Y-103127108D02*
X176014284Y-103089013D01*
X176014284Y-103089013D02*
X176204760Y-103089013D01*
X176204760Y-103089013D02*
X176280951Y-103050918D01*
X176661904Y-103393775D02*
X176661904Y-102593775D01*
X176661904Y-102898537D02*
X176738094Y-102860441D01*
X176738094Y-102860441D02*
X176890475Y-102860441D01*
X176890475Y-102860441D02*
X176966666Y-102898537D01*
X176966666Y-102898537D02*
X177004761Y-102936632D01*
X177004761Y-102936632D02*
X177042856Y-103012822D01*
X177042856Y-103012822D02*
X177042856Y-103241394D01*
X177042856Y-103241394D02*
X177004761Y-103317584D01*
X177004761Y-103317584D02*
X176966666Y-103355680D01*
X176966666Y-103355680D02*
X176890475Y-103393775D01*
X176890475Y-103393775D02*
X176738094Y-103393775D01*
X176738094Y-103393775D02*
X176661904Y-103355680D01*
X177499999Y-103393775D02*
X177423809Y-103355680D01*
X177423809Y-103355680D02*
X177385714Y-103279489D01*
X177385714Y-103279489D02*
X177385714Y-102593775D01*
X178109524Y-103355680D02*
X178033333Y-103393775D01*
X178033333Y-103393775D02*
X177880952Y-103393775D01*
X177880952Y-103393775D02*
X177804762Y-103355680D01*
X177804762Y-103355680D02*
X177766666Y-103279489D01*
X177766666Y-103279489D02*
X177766666Y-102974727D01*
X177766666Y-102974727D02*
X177804762Y-102898537D01*
X177804762Y-102898537D02*
X177880952Y-102860441D01*
X177880952Y-102860441D02*
X178033333Y-102860441D01*
X178033333Y-102860441D02*
X178109524Y-102898537D01*
X178109524Y-102898537D02*
X178147619Y-102974727D01*
X178147619Y-102974727D02*
X178147619Y-103050918D01*
X178147619Y-103050918D02*
X177766666Y-103127108D01*
X179100000Y-102974727D02*
X179366666Y-102974727D01*
X179480952Y-103393775D02*
X179100000Y-103393775D01*
X179100000Y-103393775D02*
X179100000Y-102593775D01*
X179100000Y-102593775D02*
X179480952Y-102593775D01*
X179747619Y-103393775D02*
X180166667Y-102860441D01*
X179747619Y-102860441D02*
X180166667Y-103393775D01*
X180357143Y-102860441D02*
X180661905Y-102860441D01*
X180471429Y-102593775D02*
X180471429Y-103279489D01*
X180471429Y-103279489D02*
X180509524Y-103355680D01*
X180509524Y-103355680D02*
X180585714Y-103393775D01*
X180585714Y-103393775D02*
X180661905Y-103393775D01*
X181233334Y-103355680D02*
X181157143Y-103393775D01*
X181157143Y-103393775D02*
X181004762Y-103393775D01*
X181004762Y-103393775D02*
X180928572Y-103355680D01*
X180928572Y-103355680D02*
X180890476Y-103279489D01*
X180890476Y-103279489D02*
X180890476Y-102974727D01*
X180890476Y-102974727D02*
X180928572Y-102898537D01*
X180928572Y-102898537D02*
X181004762Y-102860441D01*
X181004762Y-102860441D02*
X181157143Y-102860441D01*
X181157143Y-102860441D02*
X181233334Y-102898537D01*
X181233334Y-102898537D02*
X181271429Y-102974727D01*
X181271429Y-102974727D02*
X181271429Y-103050918D01*
X181271429Y-103050918D02*
X180890476Y-103127108D01*
X181614286Y-102860441D02*
X181614286Y-103393775D01*
X181614286Y-102936632D02*
X181652381Y-102898537D01*
X181652381Y-102898537D02*
X181728571Y-102860441D01*
X181728571Y-102860441D02*
X181842857Y-102860441D01*
X181842857Y-102860441D02*
X181919048Y-102898537D01*
X181919048Y-102898537D02*
X181957143Y-102974727D01*
X181957143Y-102974727D02*
X181957143Y-103393775D01*
X182680953Y-103393775D02*
X182680953Y-102593775D01*
X182680953Y-103355680D02*
X182604762Y-103393775D01*
X182604762Y-103393775D02*
X182452381Y-103393775D01*
X182452381Y-103393775D02*
X182376191Y-103355680D01*
X182376191Y-103355680D02*
X182338096Y-103317584D01*
X182338096Y-103317584D02*
X182300000Y-103241394D01*
X182300000Y-103241394D02*
X182300000Y-103012822D01*
X182300000Y-103012822D02*
X182338096Y-102936632D01*
X182338096Y-102936632D02*
X182376191Y-102898537D01*
X182376191Y-102898537D02*
X182452381Y-102860441D01*
X182452381Y-102860441D02*
X182604762Y-102860441D01*
X182604762Y-102860441D02*
X182680953Y-102898537D01*
X183366668Y-103355680D02*
X183290477Y-103393775D01*
X183290477Y-103393775D02*
X183138096Y-103393775D01*
X183138096Y-103393775D02*
X183061906Y-103355680D01*
X183061906Y-103355680D02*
X183023810Y-103279489D01*
X183023810Y-103279489D02*
X183023810Y-102974727D01*
X183023810Y-102974727D02*
X183061906Y-102898537D01*
X183061906Y-102898537D02*
X183138096Y-102860441D01*
X183138096Y-102860441D02*
X183290477Y-102860441D01*
X183290477Y-102860441D02*
X183366668Y-102898537D01*
X183366668Y-102898537D02*
X183404763Y-102974727D01*
X183404763Y-102974727D02*
X183404763Y-103050918D01*
X183404763Y-103050918D02*
X183023810Y-103127108D01*
X183747620Y-103393775D02*
X183747620Y-102860441D01*
X183747620Y-103012822D02*
X183785715Y-102936632D01*
X183785715Y-102936632D02*
X183823810Y-102898537D01*
X183823810Y-102898537D02*
X183900001Y-102860441D01*
X183900001Y-102860441D02*
X183976191Y-102860441D01*
D10*
X170691759Y-113395595D02*
X170234616Y-113395595D01*
X170463188Y-113395595D02*
X170463188Y-112595595D01*
X170463188Y-112595595D02*
X170386997Y-112709880D01*
X170386997Y-112709880D02*
X170310807Y-112786071D01*
X170310807Y-112786071D02*
X170234616Y-112824166D01*
X171453664Y-113395595D02*
X170996521Y-113395595D01*
X171225093Y-113395595D02*
X171225093Y-112595595D01*
X171225093Y-112595595D02*
X171148902Y-112709880D01*
X171148902Y-112709880D02*
X171072712Y-112786071D01*
X171072712Y-112786071D02*
X170996521Y-112824166D01*
X173734616Y-104171785D02*
X173772712Y-104133690D01*
X173772712Y-104133690D02*
X173848902Y-104095595D01*
X173848902Y-104095595D02*
X174039378Y-104095595D01*
X174039378Y-104095595D02*
X174115569Y-104133690D01*
X174115569Y-104133690D02*
X174153664Y-104171785D01*
X174153664Y-104171785D02*
X174191759Y-104247976D01*
X174191759Y-104247976D02*
X174191759Y-104324166D01*
X174191759Y-104324166D02*
X174153664Y-104438452D01*
X174153664Y-104438452D02*
X173696521Y-104895595D01*
X173696521Y-104895595D02*
X174191759Y-104895595D01*
X185191759Y-113395595D02*
X184734616Y-113395595D01*
X184963188Y-113395595D02*
X184963188Y-112595595D01*
X184963188Y-112595595D02*
X184886997Y-112709880D01*
X184886997Y-112709880D02*
X184810807Y-112786071D01*
X184810807Y-112786071D02*
X184734616Y-112824166D01*
X185686998Y-112595595D02*
X185763188Y-112595595D01*
X185763188Y-112595595D02*
X185839379Y-112633690D01*
X185839379Y-112633690D02*
X185877474Y-112671785D01*
X185877474Y-112671785D02*
X185915569Y-112747976D01*
X185915569Y-112747976D02*
X185953664Y-112900357D01*
X185953664Y-112900357D02*
X185953664Y-113090833D01*
X185953664Y-113090833D02*
X185915569Y-113243214D01*
X185915569Y-113243214D02*
X185877474Y-113319404D01*
X185877474Y-113319404D02*
X185839379Y-113357500D01*
X185839379Y-113357500D02*
X185763188Y-113395595D01*
X185763188Y-113395595D02*
X185686998Y-113395595D01*
X185686998Y-113395595D02*
X185610807Y-113357500D01*
X185610807Y-113357500D02*
X185572712Y-113319404D01*
X185572712Y-113319404D02*
X185534617Y-113243214D01*
X185534617Y-113243214D02*
X185496521Y-113090833D01*
X185496521Y-113090833D02*
X185496521Y-112900357D01*
X185496521Y-112900357D02*
X185534617Y-112747976D01*
X185534617Y-112747976D02*
X185572712Y-112671785D01*
X185572712Y-112671785D02*
X185610807Y-112633690D01*
X185610807Y-112633690D02*
X185686998Y-112595595D01*
X188191759Y-113395595D02*
X187734616Y-113395595D01*
X187963188Y-113395595D02*
X187963188Y-112595595D01*
X187963188Y-112595595D02*
X187886997Y-112709880D01*
X187886997Y-112709880D02*
X187810807Y-112786071D01*
X187810807Y-112786071D02*
X187734616Y-112824166D01*
X188953664Y-113395595D02*
X188496521Y-113395595D01*
X188725093Y-113395595D02*
X188725093Y-112595595D01*
X188725093Y-112595595D02*
X188648902Y-112709880D01*
X188648902Y-112709880D02*
X188572712Y-112786071D01*
X188572712Y-112786071D02*
X188496521Y-112824166D01*
X185234616Y-104171785D02*
X185272712Y-104133690D01*
X185272712Y-104133690D02*
X185348902Y-104095595D01*
X185348902Y-104095595D02*
X185539378Y-104095595D01*
X185539378Y-104095595D02*
X185615569Y-104133690D01*
X185615569Y-104133690D02*
X185653664Y-104171785D01*
X185653664Y-104171785D02*
X185691759Y-104247976D01*
X185691759Y-104247976D02*
X185691759Y-104324166D01*
X185691759Y-104324166D02*
X185653664Y-104438452D01*
X185653664Y-104438452D02*
X185196521Y-104895595D01*
X185196521Y-104895595D02*
X185691759Y-104895595D01*
X188691759Y-104895595D02*
X188234616Y-104895595D01*
X188463188Y-104895595D02*
X188463188Y-104095595D01*
X188463188Y-104095595D02*
X188386997Y-104209880D01*
X188386997Y-104209880D02*
X188310807Y-104286071D01*
X188310807Y-104286071D02*
X188234616Y-104324166D01*
X170691759Y-104895595D02*
X170234616Y-104895595D01*
X170463188Y-104895595D02*
X170463188Y-104095595D01*
X170463188Y-104095595D02*
X170386997Y-104209880D01*
X170386997Y-104209880D02*
X170310807Y-104286071D01*
X170310807Y-104286071D02*
X170234616Y-104324166D01*
D12*
X185521000Y-106320105D02*
X187274388Y-106320105D01*
X185521000Y-107150048D02*
X185521000Y-106320105D01*
X185521000Y-111270095D02*
X185521000Y-110440129D01*
X187278301Y-111270095D02*
X185521000Y-111270095D01*
X190034000Y-109746095D02*
X189018000Y-110381095D01*
X190034000Y-109746095D02*
X190034000Y-111016095D01*
X190034000Y-111016095D02*
X189018000Y-110381095D01*
X169102000Y-106579005D02*
X170118000Y-107214005D01*
X169102000Y-107849005D02*
X169102000Y-106579005D01*
X169102000Y-107849005D02*
X170118000Y-107214005D01*
X171857699Y-106325005D02*
X173615000Y-106325005D01*
X173615000Y-106325005D02*
X173615000Y-107154971D01*
X173615000Y-110445052D02*
X173615000Y-111274995D01*
X173615000Y-111274995D02*
X171861612Y-111274995D01*
%LPC*%
D13*
X188066000Y-110290095D03*
D14*
X185636000Y-109995089D03*
D13*
X188066000Y-109690095D03*
D14*
X185636000Y-109395089D03*
D13*
X188066000Y-109090095D03*
D14*
X185636000Y-108795100D03*
D13*
X188066000Y-108490095D03*
D14*
X185636000Y-108195089D03*
D13*
X188066000Y-107890095D03*
D14*
X185636000Y-107595088D03*
D13*
X188066000Y-107290095D03*
D15*
X187999960Y-111000016D03*
X187999960Y-106580024D03*
D13*
X171070000Y-107305005D03*
D14*
X173500000Y-107600011D03*
D13*
X171070000Y-107905005D03*
D14*
X173500000Y-108200011D03*
D13*
X171070000Y-108505005D03*
D14*
X173500000Y-108800000D03*
D13*
X171070000Y-109105005D03*
D14*
X173500000Y-109400011D03*
D13*
X171070000Y-109705005D03*
D14*
X173500000Y-110000012D03*
D13*
X171070000Y-110305005D03*
D15*
X171136040Y-106595084D03*
X171136040Y-111015076D03*
%LPD*%
M02*
